<?xml version="1.0" encoding="utf-8"?>
<!-- Generator: Adobe Illustrator 24.0.3, SVG Export Plug-In . SVG Version: 6.00 Build 0)  -->
<svg version="1.1" id="Layer_1" xmlns="http://www.w3.org/2000/svg" xmlns:xlink="http://www.w3.org/1999/xlink" x="0px" y="0px"
	 viewBox="0 0 229 49.5" style="enable-background:new 0 0 229 49.5;" xml:space="preserve">
<style type="text/css">
	.st0{fill:#7C51A1;}
	.st1{fill:#FFFFFF;}
</style>
<title>Asset 19</title>
<g id="Layer_2_1_">
	<g id="Layer_1-2">
		<path class="st0" d="M16.8,8C7.5,8,0,15.5,0,24.8s7.5,16.9,16.8,16.9c9.3,0,16.9-7.5,16.9-16.8c0,0,0,0,0,0
			C33.7,15.5,26.1,8,16.8,8z"/>
		<path class="st1" d="M17.3,30.8c1.8,0,3.6-0.8,4.8-2.1l2.4,2.1c-1.8,2.2-4.5,3.4-7.3,3.4c-4.9,0.1-9-3.7-9.2-8.6
			c0-0.2,0-0.4,0-0.6c0-5.1,3.6-9.3,8.7-9.3c5.7,0,8.5,4.4,8.6,9.6c0,0.4,0,0.7-0.1,1.1H12.1C12.4,28.9,14.6,30.9,17.3,30.8z
			 M21.3,23.6c-0.3-2.6-1.8-4.7-4.5-4.7c-2.5,0-4.2,1.9-4.6,4.7L21.3,23.6z"/>
		<path class="st1" d="M89.6,47.5h-2.1l18-45.5h2.2l12.7,32.2h-2.1L106.6,4.7L89.6,47.5z M108.6,16l1.1,2.7l-6.2,15.4h-2.1L108.6,16
			z M98.9,40.3l2,0.4l-2.8,6.8H96L98.9,40.3z M98.3,42.1l0.8-2h23.7l0.8,2H98.3z M103.3,34.2l0.8-2h13.7l0.8,2H103.3z M116.1,2
			l18,45.5H132L114,2H116.1z M120.6,40.1h2.1l2.9,7.4h-2.1L120.6,40.1z"/>
		<path class="st1" d="M147.5,2h2v35.6h20.2v2h-20.2h-2L147.5,2z M139.6,2h2v43.5h28.1v2h-30.1V2z"/>
		<path class="st1" d="M196.3,47.5h-20.7V2h20.7c3.6,0,7,1.1,10,3.1c3.1,2.1,5.7,5,7.4,8.3c1.8,3.5,2.8,7.4,2.8,11.4
			c0,3-0.5,6-1.6,8.8c-1,2.7-2.5,5.1-4.4,7.3c-1.8,2-4,3.7-6.5,4.8C201.6,46.9,199,47.5,196.3,47.5z M177.6,45.5h18.7
			c2.4,0,4.8-0.6,6.9-1.7c2.2-1.1,4.2-2.6,5.8-4.4c1.7-2,3-4.2,3.9-6.6c2-5.2,2-10.9,0-16.1c-0.9-2.4-2.2-4.7-3.9-6.6
			c-1.6-1.9-3.6-3.4-5.8-4.4c-2.2-1.1-4.6-1.6-7-1.6h-18.7V45.5z M183.5,39.6V9.9h12.8c2.2,0,4.3,0.7,6,2c1.9,1.4,3.4,3.3,4.4,5.4
			c1.1,2.3,1.7,4.9,1.6,7.5c0,2.6-0.5,5.1-1.6,7.4c-1,2.2-2.5,4-4.4,5.4c-1.7,1.3-3.8,2-6,2L183.5,39.6z M185.5,37.6h10.8
			c2.8-0.1,5.4-1.5,7-3.8c2-2.6,3.1-5.8,3-9.1c0-2.2-0.4-4.4-1.3-6.4c-0.8-1.8-2.1-3.5-3.7-4.7c-1.4-1.1-3.2-1.7-5-1.7h-10.8
			L185.5,37.6z"/>
		<path class="st1" d="M223.3,48.4c-3.1,0-5.7-2.5-5.7-5.7c0-3.1,2.5-5.7,5.7-5.7c3.1,0,5.6,2.5,5.7,5.6c0,3.1-2.5,5.6-5.6,5.7
			C223.4,48.4,223.4,48.4,223.3,48.4z M223.3,37.7c-2.8-0.1-5.1,2.2-5.2,5c-0.1,2.8,2.2,5.1,5,5.2c2.8,0.1,5.1-2.2,5.2-5
			c0,0,0-0.1,0-0.1C228.4,40,226.2,37.7,223.3,37.7C223.4,37.7,223.4,37.7,223.3,37.7L223.3,37.7z M224.6,43.3l1.6,2.2h-1.4l-1.4-2
			h-1.2v2h-1.1v-5.9h2.6c1.4,0,2.3,0.7,2.3,1.9C226,42.4,225.5,43.1,224.6,43.3L224.6,43.3z M223.6,40.7h-1.4v1.9h1.5
			c0.7,0,1.2-0.4,1.2-0.9S224.4,40.7,223.6,40.7L223.6,40.7z"/>
		<path class="st1" d="M85.7,10.8L84,11.9c-2.1-3-4.9-5.5-8.1-7.3c-6.1-3.2-13.2-3.5-19.5-0.9c-5.5,2.3-9.8,6.6-12.1,12.1
			c-2.4,5.6-2.4,12,0,17.7c1.1,2.7,2.8,5.2,4.8,7.3c2.1,2.1,4.6,3.7,7.3,4.9c6.3,2.7,13.6,2.4,19.6-0.9c3.3-1.7,6-4.2,8.1-7.3
			l1.6,1.2c-2.3,3.3-5.3,6-8.8,7.9c-6.6,3.5-14.4,3.9-21.2,0.9c-6-2.5-10.7-7.2-13.2-13.2c-2.6-6.1-2.6-13.1,0-19.2
			C44.9,9.2,49.7,4.5,55.6,2c6.9-2.9,14.7-2.6,21.3,0.9C80.4,4.8,83.4,7.5,85.7,10.8z M79.1,15.3l-1.7,1.1c-1.3-2-3.2-3.6-5.3-4.7
			c-4.5-2.4-10-2.3-14.5,0.2c-2.2,1.3-4.1,3.2-5.4,5.4c-2.7,4.6-2.7,10.3,0,14.9c1.3,2.2,3.2,4.1,5.4,5.4c4.5,2.6,9.9,2.7,14.5,0.2
			c2.1-1.1,3.9-2.8,5.3-4.8l1.6,1.1c-1.5,2.3-3.6,4.1-6,5.4c-8.2,4.4-18.4,1.3-22.8-6.9c-1.3-2.4-2-5.2-2-7.9c0-3,0.8-5.9,2.3-8.4
			c1.5-2.6,3.6-4.7,6.1-6.1c5.1-2.9,11.2-3,16.4-0.3C75.6,11.2,77.6,13,79.1,15.3z"/>
	</g>
</g>
</svg>
