<svg xmlns="http://www.w3.org/2000/svg" viewBox="0 0 229.02 49.5"><title>Asset 19</title><g id="Layer_2" data-name="Layer 2"><g id="Layer_1-2" data-name="Layer 1"><path d="M16.84,8A16.86,16.86,0,1,0,33.68,24.83,16.84,16.84,0,0,0,16.84,8Z" fill="#7c51a1"/><path d="M17.28,30.78a6.47,6.47,0,0,0,4.81-2.14l2.4,2.12a9,9,0,0,1-7.28,3.36,8.9,8.9,0,0,1-9.15-9.26c0-5.12,3.59-9.31,8.68-9.32,5.66,0,8.54,4.43,8.55,9.59a10.84,10.84,0,0,1-.07,1.11l-13.08,0A5,5,0,0,0,17.28,30.78Zm4-7.23c-.28-2.63-1.83-4.68-4.53-4.68-2.49,0-4.24,1.94-4.61,4.7Z" fill="#fff"/><path d="M89.61,47.52H87.47L105.48,2h2.15l12.7,32.17h-2.12L106.55,4.65ZM108.6,16l1.05,2.73-6.19,15.42h-2.14ZM98.91,40.33l2,.36-2.78,6.83H96Zm-.65,1.74.77-2h23.69l.77,2Zm5-7.92.79-2h13.7l.79,2ZM116.12,2l18,45.54H132L114,2Zm4.46,38.13h2.14l2.91,7.41h-2.12Z" fill="#231f20"/><path d="M147.48,2h2V37.62h20.21v2H149.46l-2,0Zm-7.92,0h2V45.54h28.13v2H139.56Z" fill="#231f20"/><path d="M196.3,47.52H175.61V2H196.3a18,18,0,0,1,10,3.05,22,22,0,0,1,7.41,8.31,24.14,24.14,0,0,1,2.76,11.41,24.24,24.24,0,0,1-1.63,8.84,23.89,23.89,0,0,1-4.36,7.27A20.71,20.71,0,0,1,204,45.72,17.63,17.63,0,0,1,196.3,47.52Zm-18.71-2H196.3a15.54,15.54,0,0,0,6.95-1.65,18.6,18.6,0,0,0,5.81-4.43A21.76,21.76,0,0,0,213,32.82a22.86,22.86,0,0,0,0-16.13,21.88,21.88,0,0,0-3.92-6.64,18.48,18.48,0,0,0-5.81-4.44A15.54,15.54,0,0,0,196.3,4H177.59Zm5.94-5.94V9.9H196.3a10.12,10.12,0,0,1,6,2,13.78,13.78,0,0,1,4.42,5.4,17.09,17.09,0,0,1,1.63,7.47,17.13,17.13,0,0,1-1.63,7.45,13.78,13.78,0,0,1-4.42,5.42,10.12,10.12,0,0,1-6,2Zm2-2H196.3a8.73,8.73,0,0,0,7-3.78,14.32,14.32,0,0,0,3-9.09A15.42,15.42,0,0,0,205,18.29a11.91,11.91,0,0,0-3.66-4.69,8.14,8.14,0,0,0-5-1.72H185.51Z" fill="#231f20"/><path d="M223.34,48.43A5.66,5.66,0,1,1,229,42.75,5.62,5.62,0,0,1,223.34,48.43Zm0-10.76a5.1,5.1,0,1,0,5,5.08A5,5,0,0,0,223.37,37.67Zm1.25,5.66,1.6,2.24h-1.35l-1.43-2H222.2v2h-1.12V39.64h2.64c1.37,0,2.28.71,2.28,1.89A1.76,1.76,0,0,1,224.62,43.33Zm-1-2.67H222.2v1.87h1.47c.74,0,1.17-.36,1.17-.93S224.41,40.66,223.67,40.66Z" fill="#231f20"/><path d="M85.68,10.83,84,11.91a22.65,22.65,0,0,0-8.1-7.26,22.72,22.72,0,0,0-19.55-.87A22.29,22.29,0,0,0,44.26,15.91a22.49,22.49,0,0,0,0,17.68,22.7,22.7,0,0,0,4.85,7.27,22.89,22.89,0,0,0,7.27,4.86A22.64,22.64,0,0,0,76,44.82a22.67,22.67,0,0,0,8.11-7.29l1.59,1.21a24.83,24.83,0,0,1-8.79,7.86,24.64,24.64,0,0,1-21.25.93A24.42,24.42,0,0,1,42.44,34.36a24.54,24.54,0,0,1,0-19.22A24.42,24.42,0,0,1,55.61,2a24.64,24.64,0,0,1,21.27.94A24.75,24.75,0,0,1,85.68,10.83Zm-6.54,4.46-1.65,1.07a14.76,14.76,0,0,0-5.27-4.71,14.91,14.91,0,0,0-14.45.24,14.82,14.82,0,0,0-5.4,5.41,14.88,14.88,0,0,0,0,14.9,14.87,14.87,0,0,0,5.4,5.4,14.88,14.88,0,0,0,14.47.24,14.93,14.93,0,0,0,5.28-4.76l1.62,1.13a16.76,16.76,0,0,1-6,5.39A16.83,16.83,0,0,1,48.39,24.75a16.52,16.52,0,0,1,2.26-8.44,16.71,16.71,0,0,1,6.13-6.14A16.93,16.93,0,0,1,73.16,9.9,16.76,16.76,0,0,1,79.14,15.29Z" fill="#231f20"/></g></g></svg>