<svg xmlns="http://www.w3.org/2000/svg" viewBox="0 0 500.66 185.69"><title>WDHB</title><g id="Layer_2" data-name="Layer 2"><g id="Layer_1-2" data-name="Layer 1"><path d="M0,0V179.49H139.26V0ZM70,23.14A14.36,14.36,0,1,1,55.62,37.5,14.35,14.35,0,0,1,70,23.14ZM68,139.78c-11.67,4.7-32.89,4.39-52.9,22.43,0,0-4-32.9,47.44-48.05,41.68-12.27,42.28-23,45.62-27.43C108.12,86.73,105.55,124.64,68,139.78Zm15.49-48.2c-11.1,4.7-42.2,9.22-59.6,26.37,0,0,1.67-34.4,37-47.54,33.71-12.54,53.93-24.07,63.21-49.3C124.05,21.11,132.43,70.84,83.45,91.58Z" fill="#fff"/><path d="M181.82,55.79l-3.57-43.08c-.14-1.66-.28-2.93-.45-3.83a5.32,5.32,0,0,0-1.89-3.37,8.13,8.13,0,0,0-4.76-1.22l.17-1.38H190.7l-.17,1.38c-2.59,0-4.28.44-5.05,1.4s-1,3.3-.65,7l2.31,27.87L201,10.31c-.07-.51-.14-1-.21-1.3a5.23,5.23,0,0,0-1.87-3.3q-1.47-1.15-5.67-1.42l0-1.38h20.81L214,4.29a12.83,12.83,0,0,0-4.76.61,2.83,2.83,0,0,0-1.29,1.37,7.5,7.5,0,0,0-.41,3.2q0,.64.71,8.85T210,40.87l11.79-25.11A35.22,35.22,0,0,0,224,10a6.93,6.93,0,0,0,.17-2.8,3.12,3.12,0,0,0-1.27-1.89,6.52,6.52,0,0,0-3.32-1l0-1.38h15.27l-.12,1.38a7.67,7.67,0,0,0-3.4,1,11.39,11.39,0,0,0-3.09,3.22,61.85,61.85,0,0,0-3.68,7.26l-18.45,40h-1.43l-3.27-40-18.36,40Z" fill="#fff"/><path d="M280.64,4.85a3.79,3.79,0,0,1,3.82,3.81,3.66,3.66,0,0,1-1.13,2.69,3.75,3.75,0,0,1-5.37,0,3.66,3.66,0,0,1-1.13-2.69,3.79,3.79,0,0,1,3.81-3.81Z" fill="#fff"/><path d="M259.62,19.83l-7.57,26.62L251.19,50a2.88,2.88,0,0,0-.17.86,1.65,1.65,0,0,0,.28,1,.65.65,0,0,0,.55.32,1.63,1.63,0,0,0,.94-.56A19.66,19.66,0,0,0,255.65,47L257,48a20.32,20.32,0,0,1-4.69,5.85,7.41,7.41,0,0,1-4.46,1.9,2.85,2.85,0,0,1-2.2-.84,3.45,3.45,0,0,1-.77-2.44,19.75,19.75,0,0,1,.86-5l.87-3q-5.65,6.69-10.38,9.35a13.56,13.56,0,0,1-6.68,1.92,7.37,7.37,0,0,1-5.43-2.33,8.83,8.83,0,0,1-2.28-6.43c0-4.1,1.35-8.41,4-13a33,33,0,0,1,10.3-10.9,16.84,16.84,0,0,1,9.2-3.25A7.54,7.54,0,0,1,249.69,21a7,7,0,0,1,2.61,3.81l1.24-4Zm-14.43,1.94a9.83,9.83,0,0,0-5.8,2.31,28.62,28.62,0,0,0-7.73,9.72q-3.39,6.45-3.39,11.66a5.59,5.59,0,0,0,1.51,4.14,4.7,4.7,0,0,0,3.45,1.53q4.83,0,10.51-6.21,6.9-8.27,6.69-16.94,0-3.28-1.41-4.75A5.06,5.06,0,0,0,245.19,21.77Z" fill="#fff"/><path d="M279.85,19.13l-8.27,27.81a19.68,19.68,0,0,0-.84,3.37,1.39,1.39,0,0,0,.34,1,1.07,1.07,0,0,0,.81.38,2.25,2.25,0,0,0,1.29-.61,22.46,22.46,0,0,0,4.14-5l1.37.9a25.6,25.6,0,0,1-6,6.73,8,8,0,0,1-4.87,2,3.43,3.43,0,0,1-2.51-1,3.19,3.19,0,0,1-1-2.38,19.11,19.11,0,0,1,1.05-4.86l5.44-17.69a28.3,28.3,0,0,0,1.26-5.43,1.85,1.85,0,0,0-.61-1.41,2.39,2.39,0,0,0-1.67-.55,28.37,28.37,0,0,0-3.55.43V21.32Z" fill="#fff"/><path d="M304.26,9.6l-3.18,10.62h5.34l-.64,2.51h-5.45l-7.12,23.1a22.07,22.07,0,0,0-1.32,5.1,1.43,1.43,0,0,0,.28,1,.81.81,0,0,0,.66.34,4,4,0,0,0,2.29-1.3,45.68,45.68,0,0,0,3.73-4.82l1.3,1a25.62,25.62,0,0,1-6.46,7.21,7.47,7.47,0,0,1-4.19,1.4,3.59,3.59,0,0,1-2.68-1.07,3.76,3.76,0,0,1-1-2.73,25,25,0,0,1,1.32-6.47L294,22.73h-6l.39-1.55a21,21,0,0,0,7.33-3.53,34.58,34.58,0,0,0,6.8-8Z" fill="#fff"/><path d="M314,40a24.44,24.44,0,0,0-.26,3.26,8,8,0,0,0,2.51,5.94,8.4,8.4,0,0,0,6.1,2.45,13.7,13.7,0,0,0,5.53-1.15,45,45,0,0,0,7.88-5.12l.82,1.13q-9.3,9.2-17.74,9.2-5.73,0-8.64-3.6a12.34,12.34,0,0,1-2.9-8,23.43,23.43,0,0,1,3.61-11.95A27.29,27.29,0,0,1,320,22.71a21,21,0,0,1,11.23-3.39c2.77,0,4.83.56,6.16,1.68a5.08,5.08,0,0,1,2,4,9.28,9.28,0,0,1-2.63,6.22q-3.45,3.87-10.19,6.26A57.52,57.52,0,0,1,314,40Zm.27-1.93a34.69,34.69,0,0,0,9.65-2.27,19.45,19.45,0,0,0,7.38-5.16,9.14,9.14,0,0,0,2.46-5.7,3.52,3.52,0,0,0-1.06-2.66,4.18,4.18,0,0,0-3-1q-4.08,0-8.66,4.25T314.28,38.06Z" fill="#fff"/><path d="M357.93,19.32,352.83,37a78.63,78.63,0,0,1,5.94-9.37,29.12,29.12,0,0,1,7.44-7.06,8.59,8.59,0,0,1,4.46-1.26A4.59,4.59,0,0,1,374,20.61a4.43,4.43,0,0,1,1.33,3.31,17.23,17.23,0,0,1-1,5l-3,9.87q6.77-12,12.82-16.77a10.73,10.73,0,0,1,6.64-2.67A4.06,4.06,0,0,1,394,20.67a6.09,6.09,0,0,1,1.22,4.17,15.89,15.89,0,0,1-.8,4.77l-4.89,15.1a43.59,43.59,0,0,0-1.6,5.47,1.35,1.35,0,0,0,.31.9.67.67,0,0,0,.56.26,2.66,2.66,0,0,0,1.23-.71,19.39,19.39,0,0,0,3.74-4.53l1.3.82a30.53,30.53,0,0,1-3.34,4.24,17.39,17.39,0,0,1-4.08,3.6,6.49,6.49,0,0,1-3.13.94,2.92,2.92,0,0,1-2.2-.93,3.19,3.19,0,0,1-.88-2.29q0-1.87,1.86-7.55l4.12-12.57c.93-2.9,1.43-4.5,1.49-4.82a7.19,7.19,0,0,0,.14-1.45,2.34,2.34,0,0,0-.46-1.52,1.52,1.52,0,0,0-1.15-.55,6,6,0,0,0-3.76,1.68,51.54,51.54,0,0,0-10.92,14,80.56,80.56,0,0,0-6.25,15.15h-6l7.14-23.7A22.57,22.57,0,0,0,368.86,26a2.32,2.32,0,0,0-.44-1.57,1.38,1.38,0,0,0-1.08-.51,5.37,5.37,0,0,0-2.82.94c-1.6,1-3.68,3.2-6.21,6.54a52.43,52.43,0,0,0-5.89,9.6q-1,2.16-4.78,13.83h-5.82l7.31-25.42.95-3.3a3.71,3.71,0,0,0,.27-1.11,2.08,2.08,0,0,0-.78-1.57,3,3,0,0,0-2-.69,22.85,22.85,0,0,0-2.84.47l-.3-1.41Z" fill="#fff"/><path d="M438.16,19.83l-7.58,26.62L429.73,50a2.6,2.6,0,0,0-.17.86,1.72,1.72,0,0,0,.27,1,.66.66,0,0,0,.55.32,1.63,1.63,0,0,0,.94-.56A19.59,19.59,0,0,0,434.19,47l1.33,1a20.32,20.32,0,0,1-4.69,5.85,7.38,7.38,0,0,1-4.46,1.9,2.84,2.84,0,0,1-2.19-.84,3.46,3.46,0,0,1-.78-2.44,20.2,20.2,0,0,1,.86-5l.87-3q-5.64,6.69-10.38,9.35a13.53,13.53,0,0,1-6.68,1.92,7.34,7.34,0,0,1-5.42-2.33,8.8,8.8,0,0,1-2.29-6.43c0-4.1,1.35-8.41,4.06-13a32.93,32.93,0,0,1,10.29-10.9,16.84,16.84,0,0,1,9.21-3.25,7.53,7.53,0,0,1,4.3,1.16,7.1,7.1,0,0,1,2.62,3.81l1.24-4Zm-14.44,1.94a9.83,9.83,0,0,0-5.8,2.31,28.74,28.74,0,0,0-7.73,9.72q-3.39,6.45-3.39,11.66a5.63,5.63,0,0,0,1.51,4.14,4.72,4.72,0,0,0,3.46,1.53q4.83,0,10.5-6.21Q429.19,36.65,429,28q0-3.28-1.41-4.75A5.1,5.1,0,0,0,423.72,21.77Z" fill="#fff"/><path d="M460.47,9.6l-3.18,10.62h5.34L462,22.73h-5.45l-7.12,23.1a22.31,22.31,0,0,0-1.33,5.1,1.43,1.43,0,0,0,.28,1,.83.83,0,0,0,.66.34,4,4,0,0,0,2.3-1.3,45.68,45.68,0,0,0,3.73-4.82l1.29,1a25.47,25.47,0,0,1-6.46,7.21,7.45,7.45,0,0,1-4.19,1.4A3.56,3.56,0,0,1,443,54.63a3.76,3.76,0,0,1-1-2.73,25,25,0,0,1,1.32-6.47l6.89-22.7h-6l.39-1.55a20.93,20.93,0,0,0,7.33-3.53,34.33,34.33,0,0,0,6.81-8Z" fill="#fff"/><path d="M500.66,19.83l-7.57,26.62L492.23,50a2.88,2.88,0,0,0-.17.86,1.65,1.65,0,0,0,.28,1,.65.65,0,0,0,.55.32,1.63,1.63,0,0,0,.94-.56A19.66,19.66,0,0,0,496.69,47L498,48a20.49,20.49,0,0,1-4.69,5.85,7.41,7.41,0,0,1-4.46,1.9,2.85,2.85,0,0,1-2.2-.84,3.45,3.45,0,0,1-.77-2.44,19.75,19.75,0,0,1,.86-5l.86-3q-5.64,6.69-10.37,9.35a13.56,13.56,0,0,1-6.68,1.92,7.35,7.35,0,0,1-5.43-2.33,8.83,8.83,0,0,1-2.28-6.43c0-4.1,1.35-8.41,4.05-13a33,33,0,0,1,10.29-10.9q4.89-3.24,9.21-3.25A7.57,7.57,0,0,1,490.73,21a7,7,0,0,1,2.61,3.81l1.24-4Zm-14.43,1.94a9.83,9.83,0,0,0-5.8,2.31,28.5,28.5,0,0,0-7.73,9.72q-3.39,6.45-3.39,11.66a5.59,5.59,0,0,0,1.51,4.14,4.7,4.7,0,0,0,3.45,1.53q4.83,0,10.5-6.21,6.93-8.27,6.7-16.94,0-3.28-1.41-4.75A5.06,5.06,0,0,0,486.23,21.77Z" fill="#fff"/><path d="M173.38,76.24c0-2.91,0-3.78-3.62-3.78v-.63h9.85c3.49,0,7.65.11,10.64,1.91a10.81,10.81,0,0,1,5.12,9.48c0,6.29-4.54,11.6-13.77,11.6H169.76V94.2c3.62,0,3.62-.87,3.62-3.79ZM177,93.12a19.16,19.16,0,0,0,4,.45c6.57,0,10.07-4.69,10.07-10.24,0-5.7-3.53-10.25-10.23-10.25a15.85,15.85,0,0,0-3.84.49Z" fill="#fff"/><path d="M203.87,91.87c0,2,.88,2.29,2.65,2.33v.62H198.1V94.2c1.77,0,2.65-.28,2.65-2.33V83.4c0-2.36-.81-2.36-1.34-2.36a4.08,4.08,0,0,0-1.31.27l-.27-.59L203,78.81h.85Zm-1.58-21.15a1.71,1.71,0,1,1-1.89,1.7A1.8,1.8,0,0,1,202.29,70.72Z" fill="#fff"/><path d="M219.9,84.13h-.69c-.58-2.33-1.62-4.28-4.62-4.28-1.38,0-2.92.7-2.92,2.12,0,3.79,9.5,3.3,9.5,8.68,0,2.85-3,4.66-5.88,4.66a14.89,14.89,0,0,1-3.47-.53,4.19,4.19,0,0,0-1-.17.67.67,0,0,0-.69.45h-.69V89.51h.69a5.45,5.45,0,0,0,5.27,4.75c1.58,0,3-.83,3-2.36,0-4.06-9-3.5-9-8.43,0-2.85,2.27-4.66,5.35-4.66a7.82,7.82,0,0,1,2.19.39,7.11,7.11,0,0,0,1.42.27c.5,0,.65-.27.81-.66h.69Z" fill="#fff"/><path d="M232.59,79.3v1.25h-4V90.1c0,1.42,0,3,1.81,3a2.32,2.32,0,0,0,2-1.38h.77A5,5,0,0,1,228.7,95c-1.23,0-3.26-.73-3.26-3.72V80.55h-2.7v-.7c2.12-.79,3.81-2.46,5.23-5.65h.58v5.1Z" fill="#fff"/><path d="M239.35,82.15h.08c.85-1.25,2.31-3.34,4.35-3.34,1.15,0,2.42.77,2.42,1.91a1.64,1.64,0,0,1-1.65,1.56c-1.23,0-1.89-1.14-2.73-1.14s-2.12,1.94-2.47,2.6v6.53c0,2.81,0,3.93,3.19,3.93v.62h-8.95V94.2c1.77,0,2.65-.28,2.65-2.33V83.4c0-2.36-.81-2.36-1.34-2.36a4.08,4.08,0,0,0-1.31.27l-.27-.59,5.19-1.91h.84Z" fill="#fff"/><path d="M253,91.87c0,2,.89,2.29,2.66,2.33v.62h-8.42V94.2c1.77,0,2.65-.28,2.65-2.33V83.4c0-2.36-.81-2.36-1.35-2.36a4.07,4.07,0,0,0-1.3.27l-.27-.59,5.19-1.91H253Zm-1.57-21.15a1.71,1.71,0,1,1-1.89,1.7A1.81,1.81,0,0,1,251.43,70.72Z" fill="#fff"/><path d="M272.42,88.92c-.65,3.23-3.27,6.39-7.15,6.39-4.35,0-7.35-3.55-7.35-8.3a8.07,8.07,0,0,1,8.23-8.2c2.27,0,5.77,1.36,5.77,3.75,0,.91-.73,1.43-1.69,1.43-1.58,0-2-.73-2.15-2s-1-2-2.54-2c-3.31,0-4.62,3-4.62,5.59,0,3,1.7,7.09,5.62,7.09,2.77,0,4.46-1.84,5.34-4Z" fill="#fff"/><path d="M283.84,79.3v1.25h-4V90.1c0,1.42,0,3,1.81,3a2.31,2.31,0,0,0,2-1.38h.77A5,5,0,0,1,280,95c-1.23,0-3.27-.73-3.27-3.72V80.55H274v-.7c2.11-.79,3.8-2.46,5.23-5.65h.57v5.1Z" fill="#fff"/><path d="M313.79,82.49V76.24c0-2.91,0-3.78-3.61-3.78v-.63H321v.63c-3.61,0-3.61.87-3.61,3.78V90.41c0,2.92,0,3.79,3.61,3.79v.62H310.18V94.2c3.61,0,3.61-.87,3.61-3.79V83.74H302v6.67c0,2.92,0,3.79,3.61,3.79v.62H294.72V94.2c3.62,0,3.62-.87,3.62-3.79V76.24c0-2.91,0-3.78-3.62-3.78v-.63h10.84v.63c-3.61,0-3.61.87-3.61,3.78v6.25Z" fill="#fff"/><path d="M325.67,85.17c0,3.47,2,7.36,6.19,7.36,2.77,0,4.27-1.46,5.16-3.72l.57.35c-.65,3.19-3.15,6.15-7,6.15-4.2,0-7.5-3.23-7.5-8,0-4.48,2.5-8.51,8-8.51,4,0,6.57,2.61,6.57,6.36Zm8-1c0-2.16-1.19-4.07-3.92-4.07a4.3,4.3,0,0,0-4,4.07Z" fill="#fff"/><path d="M352.78,90.48c0,1.56,0,2.67,1,2.67.61,0,1.5-.9,2-1.35v1c-.88,1-2.38,2.54-4,2.54s-2.07-1.25-2.07-2.54c-1.74,1.15-3.08,2.54-5.43,2.54a3.85,3.85,0,0,1-4.11-4.07c0-3.89,6.38-5.27,9.54-6.52,0-2.61-.2-4.87-3.16-4.87-1.27,0-2.58.66-2.58,2.05,0,1.67-.38,2.47-1.57,2.47a1.52,1.52,0,0,1-1.58-1.67c0-.94,1.12-3.89,6.35-3.89,5.65,0,5.65,3.23,5.65,4.2Zm-3.11-4.76c-2.58.94-6.42,2.16-6.42,4.79A2.78,2.78,0,0,0,346,93.36c1.2,0,2.81-1,3.7-1.7Z" fill="#fff"/><path d="M363,91.87c0,2,.88,2.29,2.65,2.33v.62H357.2V94.2c1.77,0,2.65-.28,2.65-2.33V75.31c0-2.36-.8-2.36-1.34-2.36a4.19,4.19,0,0,0-1.31.27l-.27-.59,5.19-1.91H363Z" fill="#fff"/><path d="M376.73,79.3v1.25h-4V90.1c0,1.42,0,3,1.81,3a2.31,2.31,0,0,0,2-1.38h.77A5,5,0,0,1,372.85,95c-1.23,0-3.27-.73-3.27-3.72V80.55h-2.69v-.7c2.12-.79,3.81-2.46,5.23-5.65h.57v5.1Z" fill="#fff"/><path d="M393.69,91.87c0,2,.89,2.29,2.65,2.33v.62h-8.42V94.2c1.77,0,2.66-.28,2.66-2.33V84.68c0-3.44-1.58-3.78-2.73-3.78-1.77,0-3.08,1-4.35,2.22v8.75c0,2,.88,2.29,2.66,2.33v.62h-8.43V94.2c1.77,0,2.66-.28,2.66-2.33V75.31c0-2.36-.81-2.36-1.35-2.36a4.19,4.19,0,0,0-1.31.27l-.26-.59,5.19-1.91h.84V82.08c2.15-2.16,3.65-3.27,5.84-3.27,3.12,0,4.35,2.64,4.35,5.25Z" fill="#fff"/><path d="M410.45,76.24c0-2.91,0-3.78-3.61-3.78v-.63H418.6c7.2,0,9.89,3,9.89,6.18,0,2.54-2,4.38-4.5,5v.07c3,.35,5.69,2.36,5.69,5.31,0,2-1.27,6.39-9.81,6.39h-13V94.2c3.61,0,3.61-.87,3.61-3.79Zm3.62,5.94a23.5,23.5,0,0,0,4.23.24c5.54,0,6.27-3.19,6.27-4.54,0-3.58-3.77-4.9-7.2-4.9a13.11,13.11,0,0,0-3.3.38Zm0,10.94a19.87,19.87,0,0,0,4.35.45c3.26,0,6.95-1.32,6.95-4.76,0-4.06-4.27-5.24-8.07-5.24a20.32,20.32,0,0,0-3.23.17Z" fill="#fff"/><path d="M449.67,86.69c0,3.58-2.46,8.62-8.53,8.62a8,8,0,0,1-8.08-8.09,8.33,8.33,0,0,1,8.35-8.41A8,8,0,0,1,449.67,86.69Zm-13.11-1c0,3,1.19,8.4,5.46,8.4,3.5,0,4.15-3.54,4.15-6,0-3-1.15-8.16-5.42-8.16C438.87,80,436.56,81.28,436.56,85.72Z" fill="#fff"/><path d="M464.94,90.48c0,1.56,0,2.67,1,2.67.61,0,1.5-.9,2-1.35v1c-.89,1-2.39,2.54-4,2.54s-2.08-1.25-2.08-2.54c-1.73,1.15-3.07,2.54-5.42,2.54a3.85,3.85,0,0,1-4.11-4.07c0-3.89,6.38-5.27,9.53-6.52,0-2.61-.19-4.87-3.15-4.87-1.27,0-2.58.66-2.58,2.05,0,1.67-.38,2.47-1.57,2.47a1.52,1.52,0,0,1-1.58-1.67c0-.94,1.12-3.89,6.35-3.89,5.65,0,5.65,3.23,5.65,4.2Zm-3.12-4.76c-2.57.94-6.42,2.16-6.42,4.79a2.79,2.79,0,0,0,2.73,2.85,7.68,7.68,0,0,0,3.69-1.7Z" fill="#fff"/><path d="M474.28,82.15h.08c.84-1.25,2.3-3.34,4.34-3.34,1.16,0,2.42.77,2.42,1.91a1.64,1.64,0,0,1-1.65,1.56c-1.23,0-1.88-1.14-2.73-1.14s-2.11,1.94-2.46,2.6v6.53c0,2.81,0,3.93,3.19,3.93v.62h-9V94.2c1.77,0,2.66-.28,2.66-2.33V83.4c0-2.36-.81-2.36-1.35-2.36a4.19,4.19,0,0,0-1.31.27l-.27-.59,5.19-1.91h.85Z" fill="#fff"/><path d="M494.24,75.31c0-2.36-.81-2.36-1.35-2.36a4.19,4.19,0,0,0-1.31.27l-.27-.59,5.19-1.91h.85v20c0,2.36.81,2.36,1.34,2.36a4.08,4.08,0,0,0,1.31-.27l.27.59-5.19,1.91h-.84V93.08a7.13,7.13,0,0,1-5.12,2.23c-4.5,0-7-4-7-7.68,0-4.13,3.27-8.82,8.27-8.82a5.59,5.59,0,0,1,3.81,1.32Zm0,9c0-2.08-1.39-4.45-4-4.45-1.39,0-4.58,1.15-4.58,6.57,0,4.23,2.35,7,5.27,7a4.74,4.74,0,0,0,3.31-1.56Z" fill="#fff"/><path d="M189.58,172.86a6.54,6.54,0,0,1-.33,2.14,5.68,5.68,0,0,1-.89,1.69A5.87,5.87,0,0,1,187,178a7.53,7.53,0,0,1-1.75.87,10.79,10.79,0,0,1-2.05.51,16.05,16.05,0,0,1-2.41.16H174.9a1.41,1.41,0,0,1-1-.33,1.38,1.38,0,0,1-.39-1.09V158.79a1.34,1.34,0,0,1,.39-1.08,1.41,1.41,0,0,1,1-.33h5.55a14.78,14.78,0,0,1,3.45.34,6.78,6.78,0,0,1,2.37,1,4.63,4.63,0,0,1,1.48,1.75,6.15,6.15,0,0,1,.31,4,4.76,4.76,0,0,1-.6,1.29,4.5,4.5,0,0,1-1,1,4.93,4.93,0,0,1-1.3.71,6.22,6.22,0,0,1,1.73.6,4.93,4.93,0,0,1,1.38,1.1,5.15,5.15,0,0,1,.94,1.59A5.88,5.88,0,0,1,189.58,172.86Zm-5.81-9.32a3.19,3.19,0,0,0-.21-1.19,2.12,2.12,0,0,0-.61-.88,3,3,0,0,0-1-.54,6.1,6.1,0,0,0-1.66-.19H178v5.74h2.52a4.15,4.15,0,0,0,1.55-.23,2.63,2.63,0,0,0,1-.63,2.73,2.73,0,0,0,.57-.94A3.59,3.59,0,0,0,183.77,163.54Zm1.14,9.47a3.49,3.49,0,0,0-.25-1.37,2.58,2.58,0,0,0-.76-1,3.55,3.55,0,0,0-1.26-.63,7.32,7.32,0,0,0-2-.22H178v6.28h3.25a5.51,5.51,0,0,0,1.58-.19,3.26,3.26,0,0,0,1.11-.58,2.69,2.69,0,0,0,.74-1A3.19,3.19,0,0,0,184.91,173Z" fill="#fff"/><path d="M207,170.84a1.66,1.66,0,0,1-.35,1.16,1.23,1.23,0,0,1-1,.38h-9.28a6.49,6.49,0,0,0,.23,1.77,3.41,3.41,0,0,0,.74,1.35,3.31,3.31,0,0,0,1.3.85,5.62,5.62,0,0,0,1.9.29,10.55,10.55,0,0,0,2-.17,9.89,9.89,0,0,0,1.47-.36c.42-.13.76-.25,1-.35a1.88,1.88,0,0,1,.66-.17.5.5,0,0,1,.26.06.4.4,0,0,1,.17.22,1.29,1.29,0,0,1,.1.43c0,.19,0,.43,0,.71a6,6,0,0,1,0,.64,2.81,2.81,0,0,1-.05.46.87.87,0,0,1-.1.31,1.05,1.05,0,0,1-.18.25,1.93,1.93,0,0,1-.61.32,8.91,8.91,0,0,1-1.26.41c-.51.13-1.1.24-1.76.34a15.72,15.72,0,0,1-2.12.14,11.24,11.24,0,0,1-3.56-.51,6.43,6.43,0,0,1-2.56-1.55,6.62,6.62,0,0,1-1.53-2.64,12.54,12.54,0,0,1-.5-3.72,12,12,0,0,1,.53-3.67,7.54,7.54,0,0,1,1.54-2.77,6.7,6.7,0,0,1,2.45-1.73,8.4,8.4,0,0,1,3.25-.6,8.68,8.68,0,0,1,3.28.56,6,6,0,0,1,2.23,1.57,6.25,6.25,0,0,1,1.28,2.37,10.4,10.4,0,0,1,.41,3Zm-4.17-1.23a4.42,4.42,0,0,0-.73-2.84,2.81,2.81,0,0,0-2.4-1,3.24,3.24,0,0,0-1.43.31,2.89,2.89,0,0,0-1,.83,3.75,3.75,0,0,0-.62,1.23,6.62,6.62,0,0,0-.25,1.51Z" fill="#fff"/><path d="M221.28,174.6a5,5,0,0,1-.49,2.29,4.5,4.5,0,0,1-1.37,1.66,6.34,6.34,0,0,1-2.11,1,9.92,9.92,0,0,1-2.63.33,9.53,9.53,0,0,1-1.63-.13,9.23,9.23,0,0,1-1.39-.32,7.18,7.18,0,0,1-1-.4,2.83,2.83,0,0,1-.6-.39,1.22,1.22,0,0,1-.29-.56,5.23,5.23,0,0,1-.1-1.14,5.63,5.63,0,0,1,0-.79,1.74,1.74,0,0,1,.1-.48.42.42,0,0,1,.17-.24.5.5,0,0,1,.26-.06,1.28,1.28,0,0,1,.55.21c.25.15.55.3.91.47a7.82,7.82,0,0,0,1.28.48,5.53,5.53,0,0,0,1.65.23,4,4,0,0,0,1-.12,2.71,2.71,0,0,0,.79-.35,1.35,1.35,0,0,0,.5-.56,1.67,1.67,0,0,0,.17-.79,1.32,1.32,0,0,0-.31-.88,3,3,0,0,0-.84-.64,10.18,10.18,0,0,0-1.18-.51c-.44-.16-.89-.34-1.35-.53a12.1,12.1,0,0,1-1.35-.67,5,5,0,0,1-1.18-.92,4.1,4.1,0,0,1-.84-1.31,4.91,4.91,0,0,1-.31-1.85,4.76,4.76,0,0,1,.42-2,4.44,4.44,0,0,1,1.23-1.56,5.77,5.77,0,0,1,2-1,8.67,8.67,0,0,1,2.59-.36,9,9,0,0,1,1.39.1,11.47,11.47,0,0,1,1.23.26,5.67,5.67,0,0,1,.92.33,3.59,3.59,0,0,1,.54.31,1.07,1.07,0,0,1,.23.26,1.05,1.05,0,0,1,.1.3q0,.18.06.45a6.34,6.34,0,0,1,0,.66c0,.3,0,.55,0,.75a2.07,2.07,0,0,1-.09.46.41.41,0,0,1-.16.23.48.48,0,0,1-.24.06,1.2,1.2,0,0,1-.48-.18,6.32,6.32,0,0,0-.81-.38,8.67,8.67,0,0,0-1.13-.39,5.35,5.35,0,0,0-1.46-.18,3.83,3.83,0,0,0-1,.12,2.18,2.18,0,0,0-.7.34,1.46,1.46,0,0,0-.54,1.17,1.23,1.23,0,0,0,.32.88,2.92,2.92,0,0,0,.86.64,9.84,9.84,0,0,0,1.2.51c.45.16.91.33,1.37.52a14.27,14.27,0,0,1,1.37.66,5.17,5.17,0,0,1,1.2.92,4.23,4.23,0,0,1,.85,1.31A4.52,4.52,0,0,1,221.28,174.6Z" fill="#fff"/><path d="M233.18,177.4a5.64,5.64,0,0,1-.09,1.16,1.22,1.22,0,0,1-.25.56,1.21,1.21,0,0,1-.45.29,4.79,4.79,0,0,1-.7.23,7.2,7.2,0,0,1-.87.14c-.32,0-.63.05-.95.05a6.94,6.94,0,0,1-2.22-.32,3.72,3.72,0,0,1-1.56-1,4.27,4.27,0,0,1-.91-1.7,9.2,9.2,0,0,1-.29-2.43v-7.81h-1.82a.54.54,0,0,1-.5-.4,3.87,3.87,0,0,1-.17-1.34,6.74,6.74,0,0,1,0-.84,1.94,1.94,0,0,1,.13-.54.71.71,0,0,1,.21-.28.53.53,0,0,1,.3-.09h1.81v-3.4a.6.6,0,0,1,.1-.31.72.72,0,0,1,.34-.23A2.93,2.93,0,0,1,226,159a9.7,9.7,0,0,1,1,0,10,10,0,0,1,1.05,0,2.83,2.83,0,0,1,.66.13.84.84,0,0,1,.34.23.52.52,0,0,1,.1.31v3.4h3.32a.53.53,0,0,1,.3.09.71.71,0,0,1,.21.28,1.94,1.94,0,0,1,.13.54,6.74,6.74,0,0,1,0,.84,3.63,3.63,0,0,1-.17,1.34.54.54,0,0,1-.49.4h-3.34v7.16a3.47,3.47,0,0,0,.4,1.87,1.52,1.52,0,0,0,1.4.63,2.8,2.8,0,0,0,.61-.06,3.7,3.7,0,0,0,.49-.14l.36-.14a.69.69,0,0,1,.26-.06.36.36,0,0,1,.2.06.45.45,0,0,1,.15.24c0,.12.06.28.09.49A5.66,5.66,0,0,1,233.18,177.4Z" fill="#fff"/><path d="M259.76,176.14c0,.29,0,.53,0,.73a4.86,4.86,0,0,1-.07.51,1.78,1.78,0,0,1-.14.37,2.21,2.21,0,0,1-.27.35,3.49,3.49,0,0,1-.73.5,8.31,8.31,0,0,1-1.32.59,11.72,11.72,0,0,1-1.78.47,11.2,11.2,0,0,1-2.16.19,11.56,11.56,0,0,1-4.1-.7,8.16,8.16,0,0,1-3.11-2.1,9.23,9.23,0,0,1-2-3.47,15.49,15.49,0,0,1-.69-4.86,15.33,15.33,0,0,1,.75-5,10.58,10.58,0,0,1,2.11-3.68,8.81,8.81,0,0,1,3.23-2.25,10.83,10.83,0,0,1,4.17-.77,10.23,10.23,0,0,1,1.77.15,11,11,0,0,1,1.58.4,8.88,8.88,0,0,1,1.31.57,4,4,0,0,1,.81.56,1.82,1.82,0,0,1,.32.38,1.69,1.69,0,0,1,.14.4,4.06,4.06,0,0,1,.07.56q0,.33,0,.81t0,.87a3.06,3.06,0,0,1-.12.58.81.81,0,0,1-.21.32.39.39,0,0,1-.27.1,1.15,1.15,0,0,1-.65-.29,9.05,9.05,0,0,0-1-.67,8,8,0,0,0-1.49-.67,6.26,6.26,0,0,0-2.06-.3,4.87,4.87,0,0,0-4.11,2.08,7.29,7.29,0,0,0-1.1,2.42,14.21,14.21,0,0,0,0,6.57,6.52,6.52,0,0,0,1.14,2.35,4.71,4.71,0,0,0,1.8,1.37A5.78,5.78,0,0,0,254,176a7,7,0,0,0,2.07-.28,8.91,8.91,0,0,0,1.5-.63c.41-.23.75-.43,1-.61a1.24,1.24,0,0,1,.63-.28.54.54,0,0,1,.27.07.5.5,0,0,1,.17.28,2.18,2.18,0,0,1,.1.57A8.55,8.55,0,0,1,259.76,176.14Z" fill="#fff"/><path d="M275.72,179a.49.49,0,0,1-.17.38,1.2,1.2,0,0,1-.54.19,7.38,7.38,0,0,1-1.09.06,7.23,7.23,0,0,1-1.11-.06,1,1,0,0,1-.5-.19.5.5,0,0,1-.14-.38v-1.21a7.13,7.13,0,0,1-2.15,1.57,6.15,6.15,0,0,1-2.68.56,7.56,7.56,0,0,1-2.23-.31,5.22,5.22,0,0,1-1.76-.94,4.25,4.25,0,0,1-1.15-1.55,5.32,5.32,0,0,1-.41-2.15,4.87,4.87,0,0,1,.52-2.32,4.24,4.24,0,0,1,1.56-1.62,7.53,7.53,0,0,1,2.57-1,18,18,0,0,1,3.57-.31h1.49v-.92a4.73,4.73,0,0,0-.15-1.26,1.88,1.88,0,0,0-.48-.89,1.9,1.9,0,0,0-.88-.53,4.53,4.53,0,0,0-1.38-.18,7,7,0,0,0-1.92.24,11.24,11.24,0,0,0-1.5.53c-.43.2-.79.37-1.08.53a1.59,1.59,0,0,1-.71.24.52.52,0,0,1-.34-.12.88.88,0,0,1-.23-.34,1.9,1.9,0,0,1-.15-.55,5,5,0,0,1-.05-.71,3.6,3.6,0,0,1,.08-.84,1.34,1.34,0,0,1,.33-.56,3.38,3.38,0,0,1,.84-.54,9,9,0,0,1,1.4-.56,13.22,13.22,0,0,1,1.75-.42,11.36,11.36,0,0,1,2-.16,11.82,11.82,0,0,1,3.06.35,5.23,5.23,0,0,1,2.1,1.08,4.22,4.22,0,0,1,1.19,1.87,8.75,8.75,0,0,1,.38,2.72Zm-4.22-6.53h-1.64a8.26,8.26,0,0,0-1.78.16,3.31,3.31,0,0,0-1.2.46,1.89,1.89,0,0,0-.67.74,2.26,2.26,0,0,0-.21,1,1.91,1.91,0,0,0,.6,1.5,2.42,2.42,0,0,0,1.69.55,3.12,3.12,0,0,0,1.66-.46A7.11,7.11,0,0,0,271.5,175Z" fill="#fff"/><path d="M289.8,165.08c0,.41,0,.75,0,1a4.73,4.73,0,0,1-.1.62.59.59,0,0,1-.18.3.46.46,0,0,1-.29.09.89.89,0,0,1-.3-.06l-.39-.13-.47-.13a2.47,2.47,0,0,0-.56-.06,1.86,1.86,0,0,0-.72.15,3.12,3.12,0,0,0-.74.45,5.73,5.73,0,0,0-.81.82,11.87,11.87,0,0,0-.89,1.27v9.5a.48.48,0,0,1-.11.3.81.81,0,0,1-.35.21,2.83,2.83,0,0,1-.66.13,13.54,13.54,0,0,1-2.08,0,3.07,3.07,0,0,1-.66-.13.87.87,0,0,1-.35-.21.47.47,0,0,1-.1-.3V163.66a.55.55,0,0,1,.08-.29.64.64,0,0,1,.31-.22A3,3,0,0,1,281,163c.24,0,.53,0,.88,0s.67,0,.91,0a2.59,2.59,0,0,1,.56.13.64.64,0,0,1,.28.22.55.55,0,0,1,.08.29v1.9a12.59,12.59,0,0,1,1.13-1.41,6.39,6.39,0,0,1,1-.88,3.2,3.2,0,0,1,1-.45,3.4,3.4,0,0,1,1-.13l.48,0a3.4,3.4,0,0,1,.53.08,4,4,0,0,1,.48.14.82.82,0,0,1,.3.16.62.62,0,0,1,.14.19,2.26,2.26,0,0,1,.07.28,3.09,3.09,0,0,1,0,.54C289.8,164.35,289.8,164.67,289.8,165.08Z" fill="#fff"/><path d="M306.15,170.84a1.66,1.66,0,0,1-.35,1.16,1.24,1.24,0,0,1-1,.38h-9.28a6.49,6.49,0,0,0,.23,1.77,3.41,3.41,0,0,0,.74,1.35,3.24,3.24,0,0,0,1.3.85,5.62,5.62,0,0,0,1.9.29,10.51,10.51,0,0,0,2-.17,10,10,0,0,0,1.48-.36c.42-.13.76-.25,1-.35a1.88,1.88,0,0,1,.66-.17.5.5,0,0,1,.26.06.44.44,0,0,1,.17.22,1.11,1.11,0,0,1,.09.43,7,7,0,0,1,0,.71c0,.25,0,.47,0,.64a4.63,4.63,0,0,1-.05.46,1.13,1.13,0,0,1-.1.31,1.44,1.44,0,0,1-.18.25,1.93,1.93,0,0,1-.61.32,8.91,8.91,0,0,1-1.26.41c-.51.13-1.1.24-1.76.34a15.72,15.72,0,0,1-2.12.14,11.3,11.3,0,0,1-3.57-.51,6.39,6.39,0,0,1-2.55-1.55,6.62,6.62,0,0,1-1.53-2.64,12.23,12.23,0,0,1-.5-3.72,11.66,11.66,0,0,1,.53-3.67,7.54,7.54,0,0,1,1.54-2.77,6.62,6.62,0,0,1,2.45-1.73,8.4,8.4,0,0,1,3.25-.6,8.68,8.68,0,0,1,3.28.56,6,6,0,0,1,2.23,1.57,6.39,6.39,0,0,1,1.28,2.37,10.4,10.4,0,0,1,.41,3ZM302,169.61a4.42,4.42,0,0,0-.73-2.84,2.81,2.81,0,0,0-2.4-1,3.21,3.21,0,0,0-1.43.31,2.89,2.89,0,0,0-1,.83,3.75,3.75,0,0,0-.62,1.23,6.11,6.11,0,0,0-.25,1.51Z" fill="#fff"/><path d="M326.79,157.85c0,.34,0,.6,0,.8a1.88,1.88,0,0,1-.1.46.5.5,0,0,1-.16.22.33.33,0,0,1-.19.06.69.69,0,0,1-.26-.06l-.36-.13-.5-.12a3.54,3.54,0,0,0-.69-.06,2.07,2.07,0,0,0-.79.14,1.38,1.38,0,0,0-.56.46,2.2,2.2,0,0,0-.32.82,6.19,6.19,0,0,0-.11,1.24v1.4h2.79a.47.47,0,0,1,.28.09.64.64,0,0,1,.22.28,2,2,0,0,1,.12.54,6.53,6.53,0,0,1,.05.84,3.87,3.87,0,0,1-.17,1.34c-.12.27-.28.4-.5.4h-2.79v12.34a.47.47,0,0,1-.1.3.83.83,0,0,1-.34.21,2.82,2.82,0,0,1-.67.13,10.24,10.24,0,0,1-1,0,10,10,0,0,1-1,0,3.05,3.05,0,0,1-.67-.13.76.76,0,0,1-.34-.21.54.54,0,0,1-.1-.3V166.57h-1.91c-.22,0-.38-.13-.49-.4a3.92,3.92,0,0,1-.16-1.34,6.53,6.53,0,0,1,.05-.84,2,2,0,0,1,.11-.54.63.63,0,0,1,.21-.28.51.51,0,0,1,.3-.09h1.89V161.8a11,11,0,0,1,.31-2.72,5,5,0,0,1,1-2,4.08,4.08,0,0,1,1.67-1.17,6.7,6.7,0,0,1,2.4-.4,6.44,6.44,0,0,1,1.27.12,6.14,6.14,0,0,1,.94.23,1.67,1.67,0,0,1,.46.24,1,1,0,0,1,.2.33,2.21,2.21,0,0,1,.11.55C326.78,157.25,326.79,157.52,326.79,157.85Z" fill="#fff"/><path d="M343.56,171.13a11.73,11.73,0,0,1-.51,3.56,7.47,7.47,0,0,1-1.56,2.77,6.87,6.87,0,0,1-2.61,1.79,9.83,9.83,0,0,1-3.67.63,10,10,0,0,1-3.54-.56,6.41,6.41,0,0,1-2.5-1.64A6.77,6.77,0,0,1,327.7,175a12.33,12.33,0,0,1-.48-3.59,11.42,11.42,0,0,1,.53-3.56,7.32,7.32,0,0,1,1.56-2.77,6.87,6.87,0,0,1,2.61-1.79,9.74,9.74,0,0,1,3.66-.63,10.31,10.31,0,0,1,3.56.56,6.14,6.14,0,0,1,2.48,1.63,6.76,6.76,0,0,1,1.46,2.65A12.35,12.35,0,0,1,343.56,171.13Zm-4.42.17a11.08,11.08,0,0,0-.18-2.07,5,5,0,0,0-.61-1.65,3.08,3.08,0,0,0-1.14-1.1,3.64,3.64,0,0,0-1.78-.39,3.85,3.85,0,0,0-1.68.35,3.08,3.08,0,0,0-1.18,1,5,5,0,0,0-.69,1.62,9.35,9.35,0,0,0-.23,2.16,10.37,10.37,0,0,0,.19,2.08,5.28,5.28,0,0,0,.6,1.65,2.82,2.82,0,0,0,1.14,1.08,3.69,3.69,0,0,0,1.78.39,3.86,3.86,0,0,0,1.69-.35,3.05,3.05,0,0,0,1.18-1,4.63,4.63,0,0,0,.68-1.61A9.51,9.51,0,0,0,339.14,171.3Z" fill="#fff"/><path d="M356.76,165.08c0,.41,0,.75,0,1a3.48,3.48,0,0,1-.1.62.59.59,0,0,1-.18.3.45.45,0,0,1-.28.09.94.94,0,0,1-.31-.06l-.38-.13-.47-.13a2.56,2.56,0,0,0-.57-.06,1.86,1.86,0,0,0-.72.15,3.33,3.33,0,0,0-.74.45,5.71,5.71,0,0,0-.8.82,13.43,13.43,0,0,0-.9,1.27v9.5a.47.47,0,0,1-.1.3.87.87,0,0,1-.35.21,3.07,3.07,0,0,1-.66.13,10,10,0,0,1-1,0,10.2,10.2,0,0,1-1.05,0,2.84,2.84,0,0,1-.65-.13.75.75,0,0,1-.35-.21.48.48,0,0,1-.11-.3V163.66a.48.48,0,0,1,.09-.29.59.59,0,0,1,.31-.22,2.7,2.7,0,0,1,.57-.13c.23,0,.53,0,.88,0s.67,0,.9,0a2.45,2.45,0,0,1,.56.13.59.59,0,0,1,.28.22.48.48,0,0,1,.09.29v1.9a12.62,12.62,0,0,1,1.12-1.41,6.87,6.87,0,0,1,1-.88,3.2,3.2,0,0,1,1-.45,3.52,3.52,0,0,1,1-.13l.48,0a3.59,3.59,0,0,1,.53.08,3.35,3.35,0,0,1,.47.14.82.82,0,0,1,.3.16.49.49,0,0,1,.14.19,2,2,0,0,1,.08.28,4.54,4.54,0,0,1,.05.54C356.75,164.35,356.76,164.67,356.76,165.08Z" fill="#fff"/><path d="M380.68,177.73a6.47,6.47,0,0,1,0,.83,2.14,2.14,0,0,1-.13.54.88.88,0,0,1-.21.3.5.5,0,0,1-.29.09h-11.1a1.25,1.25,0,0,1-1.34-1.42V158.79a1.34,1.34,0,0,1,.39-1.08,1.39,1.39,0,0,1,1-.33h11a.43.43,0,0,1,.27.08.63.63,0,0,1,.2.3,2.12,2.12,0,0,1,.13.55,6.3,6.3,0,0,1,.05.84,6,6,0,0,1-.05.81,1.94,1.94,0,0,1-.13.54.63.63,0,0,1-.2.3.45.45,0,0,1-.27.1h-7.9v5.4h6.68a.45.45,0,0,1,.28.09.68.68,0,0,1,.22.29,2,2,0,0,1,.13.53c0,.22,0,.49,0,.81s0,.61,0,.82a1.87,1.87,0,0,1-.13.52.62.62,0,0,1-.22.29.51.51,0,0,1-.28.08h-6.68V176h8a.5.5,0,0,1,.29.09.88.88,0,0,1,.21.3,2.14,2.14,0,0,1,.13.54A6.47,6.47,0,0,1,380.68,177.73Z" fill="#fff"/><path d="M397.55,163.65s0,.12,0,.2,0,.17,0,.27a2.83,2.83,0,0,1-.07.33,3,3,0,0,1-.11.43l-4.58,13.79a1.22,1.22,0,0,1-.23.47.91.91,0,0,1-.48.28,4.26,4.26,0,0,1-.9.14q-.57,0-1.5,0c-.6,0-1.09,0-1.47,0a4,4,0,0,1-.9-.15.86.86,0,0,1-.47-.28,1.2,1.2,0,0,1-.23-.45L382,164.88c-.07-.23-.13-.43-.17-.62a2.05,2.05,0,0,1-.06-.39,1.7,1.7,0,0,1,0-.22.49.49,0,0,1,.09-.3.69.69,0,0,1,.34-.22,2.78,2.78,0,0,1,.65-.11,10.33,10.33,0,0,1,1.05,0c.47,0,.85,0,1.13,0a3.87,3.87,0,0,1,.68.12.72.72,0,0,1,.35.23,1.63,1.63,0,0,1,.17.35l3.47,11.19.1.43.1-.43,3.42-11.19a.87.87,0,0,1,.16-.35.77.77,0,0,1,.35-.23,3.67,3.67,0,0,1,.64-.12c.27,0,.62,0,1.06,0a9.78,9.78,0,0,1,1,0,2.58,2.58,0,0,1,.62.11.64.64,0,0,1,.31.22A.49.49,0,0,1,397.55,163.65Z" fill="#fff"/><path d="M413.84,170.84a1.66,1.66,0,0,1-.35,1.16,1.21,1.21,0,0,1-1,.38h-9.28a6.12,6.12,0,0,0,.23,1.77,3.39,3.39,0,0,0,.73,1.35,3.31,3.31,0,0,0,1.3.85,5.64,5.64,0,0,0,1.91.29,10.51,10.51,0,0,0,2-.17,10.37,10.37,0,0,0,1.48-.36l1-.35a1.92,1.92,0,0,1,.67-.17.49.49,0,0,1,.25.06.4.4,0,0,1,.17.22,1.29,1.29,0,0,1,.1.43c0,.19,0,.43,0,.71s0,.47,0,.64,0,.33-.05.46a1.12,1.12,0,0,1-.11.31.83.83,0,0,1-.18.25,1.83,1.83,0,0,1-.6.32,8.67,8.67,0,0,1-1.27.41c-.51.13-1.1.24-1.76.34a15.72,15.72,0,0,1-2.12.14,11.28,11.28,0,0,1-3.56-.51,6.43,6.43,0,0,1-2.56-1.55,6.62,6.62,0,0,1-1.53-2.64,12.54,12.54,0,0,1-.5-3.72,12,12,0,0,1,.53-3.67,7.68,7.68,0,0,1,1.54-2.77,6.7,6.7,0,0,1,2.45-1.73,8.42,8.42,0,0,1,3.26-.6,8.67,8.67,0,0,1,3.27.56,5.88,5.88,0,0,1,2.23,1.57,6.25,6.25,0,0,1,1.28,2.37,10.4,10.4,0,0,1,.41,3Zm-4.17-1.23a4.36,4.36,0,0,0-.73-2.84,2.79,2.79,0,0,0-2.4-1,3.16,3.16,0,0,0-1.42.31,2.93,2.93,0,0,0-1,.83,4,4,0,0,0-.62,1.23,6.11,6.11,0,0,0-.24,1.51Z" fill="#fff"/><path d="M427.17,165.08c0,.41,0,.75,0,1a3.35,3.35,0,0,1-.11.62.48.48,0,0,1-.18.3.41.41,0,0,1-.28.09.89.89,0,0,1-.3-.06l-.39-.13-.47-.13a2.47,2.47,0,0,0-.56-.06,1.86,1.86,0,0,0-.72.15,3.12,3.12,0,0,0-.74.45,5.73,5.73,0,0,0-.81.82,13.51,13.51,0,0,0-.89,1.27v9.5a.48.48,0,0,1-.11.3.81.81,0,0,1-.35.21,2.84,2.84,0,0,1-.65.13,10.33,10.33,0,0,1-1.05,0,10,10,0,0,1-1,0,3.07,3.07,0,0,1-.66-.13.87.87,0,0,1-.35-.21.47.47,0,0,1-.1-.3V163.66a.55.55,0,0,1,.08-.29.64.64,0,0,1,.31-.22,3,3,0,0,1,.57-.13c.24,0,.53,0,.88,0s.67,0,.91,0a2.59,2.59,0,0,1,.56.13.64.64,0,0,1,.28.22.55.55,0,0,1,.08.29v1.9a12.59,12.59,0,0,1,1.13-1.41,6.39,6.39,0,0,1,1-.88,3.2,3.2,0,0,1,1-.45,3.45,3.45,0,0,1,1-.13l.48,0a3.4,3.4,0,0,1,.53.08,4,4,0,0,1,.48.14.82.82,0,0,1,.3.16.62.62,0,0,1,.14.19,2.26,2.26,0,0,1,.07.28,3.09,3.09,0,0,1,0,.54C427.17,164.35,427.17,164.67,427.17,165.08Z" fill="#fff"/><path d="M438.8,179.49l-1.85,5.4a1.13,1.13,0,0,1-.84.62,8.33,8.33,0,0,1-2,.18,7.86,7.86,0,0,1-1.09-.06,1.62,1.62,0,0,1-.62-.19.47.47,0,0,1-.22-.34,1.11,1.11,0,0,1,.1-.5l2-5.11a1.09,1.09,0,0,1-.4-.32,1.5,1.5,0,0,1-.27-.45l-5.24-14a2.94,2.94,0,0,1-.23-.92.61.61,0,0,1,.21-.49,1.37,1.37,0,0,1,.69-.25,9,9,0,0,1,1.29-.07c.49,0,.88,0,1.16,0a2.12,2.12,0,0,1,.67.12.75.75,0,0,1,.36.32,3.22,3.22,0,0,1,.24.61l3.59,10.2h.05l3.28-10.41a1.31,1.31,0,0,1,.26-.59,1.26,1.26,0,0,1,.54-.21,8,8,0,0,1,1.32-.07,8.27,8.27,0,0,1,1.22.07,1.51,1.51,0,0,1,.72.26.61.61,0,0,1,.23.5,2.5,2.5,0,0,1-.14.74Z" fill="#fff"/><path d="M461.6,171.13a11.73,11.73,0,0,1-.51,3.56,7.47,7.47,0,0,1-1.56,2.77,6.87,6.87,0,0,1-2.61,1.79,9.83,9.83,0,0,1-3.67.63,10,10,0,0,1-3.54-.56,6.41,6.41,0,0,1-2.5-1.64,6.77,6.77,0,0,1-1.47-2.65,12.33,12.33,0,0,1-.48-3.59,11.42,11.42,0,0,1,.53-3.56,7.32,7.32,0,0,1,1.56-2.77,6.87,6.87,0,0,1,2.61-1.79,9.74,9.74,0,0,1,3.66-.63,10.31,10.31,0,0,1,3.56.56,6.14,6.14,0,0,1,2.48,1.63,6.63,6.63,0,0,1,1.46,2.65A12.35,12.35,0,0,1,461.6,171.13Zm-4.42.17a11.08,11.08,0,0,0-.18-2.07,5,5,0,0,0-.61-1.65,3.08,3.08,0,0,0-1.14-1.1,3.64,3.64,0,0,0-1.78-.39,3.85,3.85,0,0,0-1.68.35,3.08,3.08,0,0,0-1.18,1,5.21,5.21,0,0,0-.69,1.62,9.35,9.35,0,0,0-.23,2.16,10.37,10.37,0,0,0,.19,2.08,5,5,0,0,0,.61,1.65,2.73,2.73,0,0,0,1.13,1.08,3.69,3.69,0,0,0,1.78.39,3.86,3.86,0,0,0,1.69-.35,3.05,3.05,0,0,0,1.18-1,4.45,4.45,0,0,0,.68-1.61A9.51,9.51,0,0,0,457.18,171.3Z" fill="#fff"/><path d="M479.56,178.91a.47.47,0,0,1-.1.3.83.83,0,0,1-.34.21,2.83,2.83,0,0,1-.66.13,10,10,0,0,1-1,0,10.33,10.33,0,0,1-1.05,0,2.83,2.83,0,0,1-.66-.13.83.83,0,0,1-.34-.21.48.48,0,0,1-.11-.3v-8.7a7.23,7.23,0,0,0-.16-1.74,3.39,3.39,0,0,0-.47-1.09,2.13,2.13,0,0,0-.79-.7,2.58,2.58,0,0,0-1.14-.25,2.87,2.87,0,0,0-1.66.6,9,9,0,0,0-1.74,1.75v10.13a.47.47,0,0,1-.1.3.87.87,0,0,1-.35.21,3.07,3.07,0,0,1-.66.13,10,10,0,0,1-1,0,10.33,10.33,0,0,1-1.05,0,2.84,2.84,0,0,1-.65-.13.75.75,0,0,1-.35-.21.48.48,0,0,1-.11-.3V163.66a.48.48,0,0,1,.09-.29.64.64,0,0,1,.31-.22A2.86,2.86,0,0,1,466,163c.23,0,.53,0,.88,0s.67,0,.91,0a2.34,2.34,0,0,1,.55.13.64.64,0,0,1,.28.22.48.48,0,0,1,.09.29v1.77a9.61,9.61,0,0,1,2.57-2.06,5.87,5.87,0,0,1,2.73-.68,6.06,6.06,0,0,1,2.62.51,4.6,4.6,0,0,1,1.73,1.4,5.65,5.65,0,0,1,.94,2.06,11.62,11.62,0,0,1,.29,2.83Z" fill="#fff"/><path d="M497.87,170.84a1.66,1.66,0,0,1-.35,1.16,1.24,1.24,0,0,1-1,.38h-9.28a6.49,6.49,0,0,0,.23,1.77,3.41,3.41,0,0,0,.74,1.35,3.24,3.24,0,0,0,1.3.85,5.62,5.62,0,0,0,1.9.29,10.51,10.51,0,0,0,2-.17,10,10,0,0,0,1.48-.36c.42-.13.76-.25,1-.35a1.88,1.88,0,0,1,.66-.17.53.53,0,0,1,.26.06.44.44,0,0,1,.17.22,1.11,1.11,0,0,1,.09.43,7,7,0,0,1,0,.71c0,.25,0,.47,0,.64a4.63,4.63,0,0,1-.05.46,1.13,1.13,0,0,1-.1.31,1.44,1.44,0,0,1-.18.25,2.06,2.06,0,0,1-.61.32,8.91,8.91,0,0,1-1.26.41c-.51.13-1.1.24-1.76.34a15.72,15.72,0,0,1-2.12.14,11.24,11.24,0,0,1-3.56-.51,6.3,6.3,0,0,1-2.56-1.55,6.62,6.62,0,0,1-1.53-2.64,12.23,12.23,0,0,1-.5-3.72,11.66,11.66,0,0,1,.53-3.67A7.67,7.67,0,0,1,485,165a6.74,6.74,0,0,1,2.46-1.73,8.37,8.37,0,0,1,3.25-.6,8.59,8.59,0,0,1,3.27.56,5.88,5.88,0,0,1,2.23,1.57,6.27,6.27,0,0,1,1.29,2.37,10.4,10.4,0,0,1,.41,3Zm-4.17-1.23a4.42,4.42,0,0,0-.73-2.84,2.81,2.81,0,0,0-2.4-1,3.21,3.21,0,0,0-1.43.31,3,3,0,0,0-1,.83,3.93,3.93,0,0,0-.61,1.23,6.11,6.11,0,0,0-.25,1.51Z" fill="#fff"/><path id="Path_1715" data-name="Path 1715" d="M479,7.06h16.7l1.21-3.15H480Z" fill="#fff"/></g></g></svg>